<svg xmlns="http://www.w3.org/2000/svg" viewBox="0 0 512 512">
  <defs>
    <linearGradient id="g" x1="0%" y1="0%" x2="100%" y2="100%">
      <stop offset="0%" stop-color="#0891b2"/>
      <stop offset="100%" stop-color="#10b981"/>
    </linearGradient>
  </defs>
  <rect width="512" height="512" rx="96" fill="#020617"/>
  <path d="M256 96C170 96 100 166 100 252s70 156 156 156 156-70 156-156S342 96 256 96zm0 28c70.5 0 128 57.5 128 128s-57.5 128-128 128S128 322.5 128 252s57.5-128 128-128z" fill="url(#g)"/>
  <path d="M256 160c-8 0-16 2-23 6l-18-31c14-8 30-13 47-13v38zm-58 33c-11 19-11 43 0 62l-33 19c-19-33-19-75 0-108l33 27zm58 131c8 0 16-2 23-6l18 31c-14 8-30 13-47 13v-38zm58-33c11-19 11-43 0-62l33-19c19 33 19 75 0 108l-33-27z" fill="#22d3ee"/>
  <path d="M256 196c-31 0-56 25-56 56s25 56 56 56 56-25 56-56-25-56-56-56zm0 28c15.5 0 28 12.5 28 28s-12.5 28-28 28-28-12.5-28-28 12.5-28 28-28z" fill="#34d399"/>
  <path d="M244 244h24v16h-24z" fill="#020617"/>
</svg>